<?xml version="1.0" encoding="UTF-8"?>
<svg
  xmlns="http://www.w3.org/2000/svg"
  viewBox="0 0 1024 768"
  preserveAspectRatio="xMidYMid meet"
>

  <defs>
    <!-- OTOS Brain Gradient -->
    <linearGradient id="otosOrange" x1="0%" y1="0%" x2="100%" y2="100%">
      <stop offset="0%" stop-color="#FF8A00"/>
      <stop offset="55%" stop-color="#FFB300"/>
      <stop offset="100%" stop-color="#FF6A00"/>
    </linearGradient>
  </defs>

  <!-- Brain body -->
  <path
    fill="url(#otosOrange)"
    d="
      M248 360
      C180 330 150 270 170 220
      C190 160 260 130 330 150
      C360 90 440 60 520 80
      C580 40 660 60 700 120
      C780 130 840 200 830 270
      C900 320 880 420 800 450
      C820 520 760 600 680 600
      C650 660 560 700 480 660
      C420 720 320 700 280 640
      C200 630 160 560 190 500
      C140 460 150 390 248 360
      Z
    "
  />

  <!-- Brain grooves (white lines) -->
  <path
    d="M350 280 C390 240 450 230 500 260"
    stroke="#FFFFFF"
    stroke-width="26"
    stroke-linecap="round"
    fill="none"
  />
  <path
    d="M380 360 C440 330 520 330 580 370"
    stroke="#FFFFFF"
    stroke-width="26"
    stroke-linecap="round"
    fill="none"
  />
  <path
    d="M420 440 C470 420 540 430 590 470"
    stroke="#FFFFFF"
    stroke-width="26"
    stroke-linecap="round"
    fill="none"
  />
  <path
    d="M520 300 C580 260 660 270 700 310"
    stroke="#FFFFFF"
    stroke-width="26"
    stroke-linecap="round"
    fill="none"
  />
</svg>
