<svg width="420" height="320" viewBox="0 0 420 320" xmlns="http://www.w3.org/2000/svg">
  <defs>
    <linearGradient id="g" x1="0%" y1="0%" x2="100%" y2="100%">
      <stop offset="0%" stop-color="#ffb703"/>
      <stop offset="55%" stop-color="#fb8500"/>
      <stop offset="100%" stop-color="#f97316"/>
    </linearGradient>
    <linearGradient id="s" x1="0%" y1="0%" x2="0%" y2="100%">
      <stop offset="0%" stop-color="white" stop-opacity="0.6"/>
      <stop offset="45%" stop-color="white" stop-opacity="0"/>
    </linearGradient>
  </defs>

  <path
    d="M90 165c-28-18-36-62-8-90
       20-20 52-24 78-10
       12-22 38-32 64-24
       28 8 46 34 42 62
       28 12 44 42 34 70
       -10 30-42 46-72 38
       -14 20-38 30-62 24
       -26-6-44-26-44-52
       -12 2-22 0-32-6z"
    fill="url(#g)"
  />

  <path
    d="M110 78c40-28 120-30 170 0"
    stroke="url(#s)"
    stroke-width="10"
    fill="none"
    stroke-linecap="round"
  />
</svg>
